<svg id="Layer_1" data-name="Layer 1" xmlns="http://www.w3.org/2000/svg" style="overflow: visible" viewBox="0 0 1745 740"><defs><style>.cls-1{fill:#2b241d;}.cls-2{fill:#ad362f;}.cls-3{fill:#ae332d;}.cls-4{fill:#ac332c;}.cls-5{fill:#b3433c;}.cls-6{fill:#b22d25;}.cls-7{fill:#7e4747;}</style></defs><path fill="none" stroke="#2b241d" stroke-width="12"  d="M1.43,8.46H78.57l235.8,567.89a36.63,36.63,0,0,0,2-3.57q45.13-106.95,90.16-213.95a24.2,24.2,0,0,0,1.85-9.12q.15-84.49.07-169V174.6h58.07v40l1,.2L554.62,8.55h77.1c-5.59,13.19-11.08,26.15-16.58,39.1Q542,219.55,469,391.52A30.37,30.37,0,0,0,466.69,403q-.19,106.75-.09,213.5v5.79H408.8V535.84l-1.09-.29-86.2,202.72H306.73Z"/><path fill="none" stroke="#2b241d" stroke-width="12" d="M118.56,5.87c15.68,0,30.51.12,45.32-.09,3.59,0,3.9,2.34,4.82,4.56l66.86,160.92c26.11,62.84,52.2,125.69,78.72,189.55C338.56,303.33,362.52,246.6,387,188.69c.24,2.07.44,3,.44,3.9v104a17.47,17.47,0,0,1-1.35,6.73q-32.82,77.49-65.71,155c-1.4,3.31-3.38,3.7-6.46,3.78-3.25.08-5-.78-6.31-4Q214,234.1,120.31,10.21C119.81,8.94,119.33,7.74,118.56,5.87Z"/><path fill="none" stroke="#2b241d" stroke-width="12" d="M437.48.93c26.46-.15,47.4,20.66,47.62,47.32a47.35,47.35,0,0,1-46.69,48H438c-25.86.31-48-21.38-48.19-47.2A48.11,48.11,0,0,1,437.48.93Z"/><path class="cls-1" d="M1274.71,375.53c-.15-69.37,52.42-123.25,120.17-123.15,68.17.09,121.22,53.72,121.11,122.41S1463.21,496.92,1395.59,497,1274.84,443.87,1274.71,375.53Zm217.49-.37c.17-55.63-42.33-100.08-95.93-100.33-55.91-.25-97.6,42.16-97.85,99.5-.23,55.63,42.24,100.12,95.85,100.39C1450.15,475,1492,432.42,1492.2,375.16Z"/><path class="cls-1" d="M1741.91,493.85c-3.92-3.37-6.89-5.35-9.14-8Q1662.56,404,1592.43,322c-1.65-1.89-3.3-3.72-5.92-6.73V491.12h-23.57V256c4.09,3.37,7.37,5.37,9.76,8.16q70.27,82.37,140.38,165c1.74,2,3.55,4,6.76,7.62V258.22h22.07Z"/><path class="cls-1" d="M1030.34,448.19l17.75-10.85c6.92,8.68,12.94,17.79,20.51,25.22a41.19,41.19,0,0,0,54.28,4.2c16.71-12,22.1-32.59,11.16-50.16-6.49-10.42-15.38-19.67-24.5-28-13.89-12.66-29.26-23.64-43.36-36.08-15.93-14-24-32.09-20.93-53.79,5.62-39.71,47.43-56.91,81.93-40.13,13.94,6.72,23.62,18.68,32.63,31.6l-17.65,14.06c-5.64-6.07-10.85-12.06-16.49-17.62a34.8,34.8,0,0,0-25.25-10.39c-13.2-.1-23.9,4.49-29.61,17.08-5.85,12.95-3.58,25.57,5.66,35.86,7.17,8,15.83,14.64,24,21.7,14.2,12.31,29.24,23.71,42.63,36.87,16.49,16.21,24.74,36.35,19.4,60.1-10,43.71-62.94,63.52-101,38C1049.14,477.73,1038.14,464.49,1030.34,448.19Z"/><path class="cls-1" d="M740.11,258.18h24.11l76,186.61c26.17-63.18,51.65-124.64,77.23-186.37h24.47c-3.92,9.58-7.52,18.49-11.23,27.45Q888,388.43,845.17,490.77c-1,2.46-3.48,4.29-5.26,6.42-1.49-1.68-3.53-3.24-4.36-5.26q-47.32-115-94.43-230.11C740.74,260.79,740.53,259.7,740.11,258.18Z"/><path class="cls-1" d="M1231.93,491.39h-22V258.54h22Z"/><path class="cls-1" d="M1000.13,258.47V491.29H978.39V258.47Z"/><path class="cls-1" d="M1435.4,96.07c35.28-.1,62.81,27.27,63,62.59.16,36.23-26.85,64.15-62.16,64.24s-62.67-27.29-63.08-62.57c-.77-34.7,26.2-63.46,60.24-64.24C1434.06,96.07,1434.73,96.07,1435.4,96.07Zm.88,115.26c28.53-.17,50.14-22.59,50.09-52,0-28.71-22.8-52-51-52h-.35c-28.22.42-50,23.54-49.48,52.64S1407.93,211.48,1436.28,211.33Z"/><path class="cls-1" d="M1580.09,96.07c35.52.1,63.08,28.18,62.67,63.8s-27.56,63.08-62.57,63-62.56-27.62-62.46-63C1517.8,123.46,1544.67,96,1580.09,96.07Zm50.35,63.72c.48-28.46-21.76-51.94-49.68-52.43h-1.07c-28.16.12-50,22.9-50,52.22-.35,28.22,21.81,51.39,49.5,51.74h1C1609,211.35,1630.34,189.44,1630.44,159.79Z"/><path class="cls-1" d="M1742.69,219.05c-9.29,2.47-15.13.18-20.34-7.38-10.26-14.86-21.44-29-32.67-43.17-2-2.59-5.57-3.92-10.19-7v58.06h-11.4V100.93c16.63,0,33.14-1.41,49.31.4,15.67,1.69,24.49,14.19,24.74,29.74s-9.37,27.73-24.74,31.12c-4.94,1.11-10.09,1.53-16,2.39Zm-63.23-66.19c12.71-.84,24.55-.76,36.06-2.67,9.9-1.68,14.2-8.51,14.22-18.66s-4.35-17.13-14.18-18.75c-11.71-2-23.74-2-35.79-2.84-.15,3.5-.3,5.16-.3,6.83,0,11.5,0,22.86,0,36.06Z"/><path class="cls-1" d="M1022.76,219.05c-9,2.32-14.85.45-20.14-7.23-10.23-14.9-21.44-29-32.67-43.22-2.13-2.69-5.92-4-10.59-7v57.87H948.08V101c16.49,0,33.28-1.47,49.69.42,15.91,1.83,24.13,13.92,24.13,30,0,15.63-8.94,27.23-24,30.7-4.95,1.16-10.21,1.56-16.5,2.47,7.09,9.3,13.91,18.19,20.68,27.12S1015.66,209.67,1022.76,219.05ZM959.51,153c13.09-1,25.45-1.11,37.48-3.16,8.71-1.48,12.8-8.73,12.93-18,.12-9.59-3.49-16.61-12.32-18.31-12.4-2.37-25.16-2.72-38.09-4Z"/><path class="cls-2" d="M822.77,646.28l-37.5-76.19-1.88.28-9.9,72.83-10.09.74c5-35.76,9.9-70.71,14.71-105.68l1.91-.7,42.77,86.88,42.27-86.71H867c4.95,35,9.9,70,15.06,105.6H871.64c-3.3-24.51-6.6-48.85-10.24-75.75Z"/><path class="cls-1" d="M1240.45,121.54c-3.1,2.46-5.67,4.51-8.24,6.52-30.43-26-60.43-27-82.09-2.77a52.86,52.86,0,0,0,1.41,71.42c16.49,17.08,53.38,25.11,80.4-4.39l8.09,6.44c-12.7,20.47-43.72,29.94-71.16,22.12-25.7-7.33-43-30.65-44-59.16s15-52.64,41.23-61.9C1193.73,90,1224.45,98.85,1240.45,121.54Z"/><path class="cls-3" d="M1118.92,593.12c.73,26.29-14.31,46.36-38.38,51.76-29.78,6.73-58.23-7-69.15-33.37-10.41-25-1.67-53.93,20.7-68.61,24.06-16,58.88-11.21,80.37,11.4l-7.46,7.11,1-2.17c-11.42-4.79-22.49-11.46-34.4-14-25.1-5.32-50.94,14.61-53.14,39.07-2.27,26.22,16.74,49.35,42.46,51.67.69.06,1.38.11,2.07.14,23.92,1,40.56-11.21,44.14-33.25h-32.69v-9.77Z"/><path class="cls-1" d="M1525.77,591c0-31.94,23.73-56.79,54.65-57,30.51-.32,55.5,24.63,55.82,55.73s-24.17,56.58-54.68,56.9h0C1550.06,646.66,1525.77,622.52,1525.77,591Zm99.76-.42c.32-25.29-19.54-46.06-44.35-46.38H1581c-24.92-.14-44.65,20.17-44.7,46.06-.48,24.92,18.94,45.51,43.39,46,.38,0,.76,0,1.14,0,25.75,0,44.6-19.23,44.66-45.64Z"/><path class="cls-1" d="M1657.7,535.27l71.43,83.3V537.42h10V645.57c-24.24-28.09-47.05-54.5-70.78-82V643H1657.7Z"/><path class="cls-1" d="M1277.06,149.67h60.53V100h11.54V219.33h-11V161.57h-60.75v58.08H1266V99.89h11Z"/><path class="cls-1" d="M870.38,208.69h55.07V219.4H858.66V100h66.92v10.22H870.53v38h54.92v11.94h-55Z"/><path class="cls-1" d="M1228.05,565.36v77.69h-9.9V535.19l71.93,84V537.42H1300V645.74l-70.24-81.42Z"/><path class="cls-1" d="M1034.46,198.74l10.31-6.42c3.07,4,5.82,8.05,9.11,11.61,5.54,6,12.22,9.22,20.66,7.45,16.41-3.44,23.09-19.62,12.83-33-4.95-6.53-11.64-11.77-17.78-17.32-5.74-5.18-12.22-9.58-17.61-15.13-11.22-11.51-12-28.06-2.54-39.52S1077,92.73,1089.71,102c5.08,3.72,9.9,7.85,15.32,12.21l-11.13,8.61c-3-3-5.77-6-8.77-8.7-8-7.29-19.59-7.48-26-.53s-5.49,17.4,2.82,25.21c5.19,4.95,11.13,9.08,16.49,13.77a180.66,180.66,0,0,1,16,14.46c13.29,14.47,13.87,32.23,2,45.1a34,34,0,0,1-47,3.37C1044.2,211.13,1040,205,1034.46,198.74Z"/><path class="cls-1" d="M783.8,223.3c-16.76-40.83-33.53-81.65-50.6-123.23h12.67l39.17,96,26.65-63.89c3.3-8,7.37-15.72,9.68-24,2.51-9,7.67-10.25,16.1-7.93L786.24,223.12Z"/><path class="cls-4" d="M894.51,642.7C911,605.58,927.4,568.81,943.77,532l2.36-.49c16.26,36.88,32.53,73.75,49.08,111.26-6.94,1.86-12.13,1.54-14.26-6.29a13.75,13.75,0,0,0-1.07-2.22q-6.39-13.06-12.79-26.09c-14.26-.12-28.54-.41-42.88-.14-1.64,0-3.59,3-4.58,5.05a220.43,220.43,0,0,0-9.9,22.07C907.21,642.39,903.32,645.81,894.51,642.7Zm32.66-46.49h35.77l-17.86-40.06c-6.25,14.07-11.88,26.63-18,40.13Z"/><path class="cls-1" d="M1317.62,642.78l50.5-113.36c17.2,39,33.39,75.79,49.82,113.11-6.7,2.12-11.1,1.58-14.07-6-3.81-9.79-6.71-22.56-14.18-27.52-7.16-4.78-19.79-.17-29.79-1.55-11.94-1.68-18.14,3-21.44,14.27-1.35,4.76-4.48,9-6,13.76C1330.33,642.7,1325.93,645,1317.62,642.78Zm68.59-46c-6-13.57-11.76-26.41-18.14-40.78-6.5,14.64-12.17,27.45-18.14,40.78Z"/><path class="cls-1" d="M1458.61,643.23H1448v-95.6h-23.6V537.54h57.06l.53,9.4h-23.35Z"/><path class="cls-5" d="M734.14,537.34h9.8v106h-9.8Z"/><path class="cls-1" d="M1505.73,643.23h-9.8v-106h9.8Z"/><path class="cls-1" d="M1150.11,590.82l-.55,3.19a65,65,0,0,0-1,8.1c-.1,13.65,0,27.32,0,41l-3,.14-5.13-.1c-.58-1.08-1.65-2.17-1.65-3.25V535.64h9.75c.26,2.66.54,5.3.8,7.94l.91,3.51-.54,4.84v24c.18,1.69.38,3.27.57,4.9-.28,1.14-.56,2.27-.85,3.36v3.09C1149.55,588.51,1149.83,589.66,1150.11,590.82Z"/><path class="cls-6" d="M1151.59,643.17l-.61.25-.62-.2V632.81h49.36c-.75,3.87-1.37,7-2,10.09Z"/><path class="cls-6" d="M1149.27,584.26c.29-1.14.57-2.27.85-3.36l1.65.15a40,40,0,0,0,7,1.33c13.39.11,26.78,0,40.17,0v7c-8.44,0-16.92-.26-25.36,0-7.24.2-14.48.9-21.7,1.39l-1.77.15-.84-3.46Z"/><path class="cls-6" d="M1150.09,547.14c-.3-1.18-.61-2.34-.91-3.51l4.36-4.91h45.94v6.72c-8.41,0-16.83-.13-25.24.14-7.48.21-14.85.9-22.4,1.39Z"/><path class="cls-7" d="M1153.54,538.72l-4.36,4.91c-.26-2.64-.54-5.28-.8-7.94,14.84.19,29.68.27,44.43.67,2.24,0,4.45,1.52,6.68,2.34h-3a72,72,0,0,0-11.7-1.55C1174.35,537.41,1163.94,538.16,1153.54,538.72Z"/><path class="cls-7" d="M1151.82,547c7.47-.48,14.85-1.17,22.4-1.39,8.41-.27,16.84-.1,25.25-.14-1,.63-2,1.77-3,1.77C1181.61,547.19,1166.72,547.06,1151.82,547Z"/><path class="cls-7" d="M1199,582.34c-13.39,0-26.79.1-40.18,0a39.15,39.15,0,0,1-7-1.33c14.66-.11,29.3-.26,44-.25C1196.8,580.75,1197.89,581.79,1199,582.34Z"/><path class="cls-7" d="M1151.87,590.66c7.23-.48,14.47-1.19,21.71-1.39,8.44-.22,16.92,0,25.36,0a33.25,33.25,0,0,1-7.29,1.68C1178.39,591,1165.13,590.78,1151.87,590.66Z"/><path class="cls-7" d="M1150.42,632.81v10.41l-1.86-.14v-41a65,65,0,0,1,1-8.1Q1150,613.42,1150.42,632.81Z"/><path class="cls-7" d="M1151.59,643.17l46.18-.22Z"/><path class="cls-7" d="M1140.33,643.12l5.13.1Z"/><path class="cls-7" d="M1149.27,584.26v3.09Q1149.28,585.82,1149.27,584.26Z"/><path class="cls-4" d="M1153.54,538.72c10.4-.56,20.81-1.31,31.23-1.57a72,72,0,0,1,11.7,1.55Z"/></svg>