<svg id="Layer_1" data-name="Layer 1" xmlns="http://www.w3.org/2000/svg" style="overflow: visible" viewBox="0 0 700 800"><defs><style>.cls-1{fill:#2b241d;}.cls-2{fill:#ad362f;}.cls-3{fill:#ae332d;}.cls-4{fill:#ac332c;}.cls-5{fill:#b3433c;}.cls-6{fill:#b22d25;}.cls-7{fill:#7e4747;}</style></defs><path fill="none" stroke="#2b241d" stroke-width="12"  d="M1.43,8.46H78.57l235.8,567.89a36.63,36.63,0,0,0,2-3.57q45.13-106.95,90.16-213.95a24.2,24.2,0,0,0,1.85-9.12q.15-84.49.07-169V174.6h58.07v40l1,.2L554.62,8.55h77.1c-5.59,13.19-11.08,26.15-16.58,39.1Q542,219.55,469,391.52A30.37,30.37,0,0,0,466.69,403q-.19,106.75-.09,213.5v5.79H408.8V535.84l-1.09-.29-86.2,202.72H306.73Z"/><path fill="none" stroke="#2b241d" stroke-width="12" d="M118.56,5.87c15.68,0,30.51.12,45.32-.09,3.59,0,3.9,2.34,4.82,4.56l66.86,160.92c26.11,62.84,52.2,125.69,78.72,189.55C338.56,303.33,362.52,246.6,387,188.69c.24,2.07.44,3,.44,3.9v104a17.47,17.47,0,0,1-1.35,6.73q-32.82,77.49-65.71,155c-1.4,3.31-3.38,3.7-6.46,3.78-3.25.08-5-.78-6.31-4Q214,234.1,120.31,10.21C119.81,8.94,119.33,7.74,118.56,5.87Z"/><path fill="none" stroke="#2b241d" stroke-width="12" d="M437.48.93c26.46-.15,47.4,20.66,47.62,47.32a47.35,47.35,0,0,1-46.69,48H438c-25.86.31-48-21.38-48.19-47.2A48.11,48.11,0,0,1,437.48.93Z"/></svg>